<?xml version="1.0" ?><svg enable-background="new 0 0 80 80" id="Layer_1" version="1.1" viewBox="0 0 80 80" xml:space="preserve" xmlns="http://www.w3.org/2000/svg" xmlns:xlink="http://www.w3.org/1999/xlink"><g><path d="   M40,5c13.563,0,25.315,7.72,31.126,19" fill="none" stroke="#000000" stroke-linecap="round" stroke-linejoin="round" stroke-miterlimit="10" stroke-width="4"/><path d="   M75,40c0-5.767-1.404-11.203-3.874-16" fill="none" stroke="#000000" stroke-linecap="round" stroke-linejoin="round" stroke-miterlimit="10" stroke-width="4"/><path d="   M30.18,73.588C33.295,74.504,36.588,75,40,75c19.33,0,35-15.67,35-35" fill="none" stroke="#000000" stroke-linecap="round" stroke-linejoin="round" stroke-miterlimit="10" stroke-width="4"/><path d="   M5,40C5,20.67,20.67,5,40,5" fill="none" stroke="#000000" stroke-linecap="round" stroke-linejoin="round" stroke-miterlimit="10" stroke-width="4"/><path d="   M5.956,48.102C5.335,45.501,5,42.791,5,40" fill="none" stroke="#000000" stroke-linecap="round" stroke-linejoin="round" stroke-miterlimit="10" stroke-width="4"/><line fill="none" stroke="#000000" stroke-linecap="round" stroke-linejoin="round" stroke-miterlimit="10" stroke-width="4" x1="5" x2="75" y1="40" y2="40"/><line fill="none" stroke="#000000" stroke-linecap="round" stroke-linejoin="round" stroke-miterlimit="10" stroke-width="4" x1="71.138" x2="71.126" y1="24" y2="24"/><line fill="none" stroke="#000000" stroke-linecap="round" stroke-linejoin="round" stroke-miterlimit="10" stroke-width="4" x1="35" x2="64" y1="55.999" y2="56"/><line fill="none" stroke="#000000" stroke-linecap="round" stroke-linejoin="round" stroke-miterlimit="10" stroke-width="4" x1="40" x2="40" y1="13" y2="67"/><path d="   M21.578,40c-0.001-5.457,1.116-10.91,3.334-16" fill="none" stroke="#000000" stroke-linecap="round" stroke-linejoin="round" stroke-miterlimit="10" stroke-width="4"/><path d="   M22.084,46.341c-0.336-2.099-0.506-4.22-0.506-6.341" fill="none" stroke="#000000" stroke-linecap="round" stroke-linejoin="round" stroke-miterlimit="10" stroke-width="4"/><path d="   M58.431,40c0-5.457-1.121-10.91-3.341-16" fill="none" stroke="#000000" stroke-linecap="round" stroke-linejoin="round" stroke-miterlimit="10" stroke-width="4"/><path d="   M40,5l-6.716,6.716c-3.647,3.647-6.429,7.827-8.372,12.284" fill="none" stroke="#000000" stroke-linecap="round" stroke-linejoin="round" stroke-miterlimit="10" stroke-width="4"/><path d="   M40,5l6.716,6.716c3.647,3.647,6.431,7.826,8.375,12.284" fill="none" stroke="#000000" stroke-linecap="round" stroke-linejoin="round" stroke-miterlimit="10" stroke-width="4"/><path d="   M33.665,68.665L40,75l6.716-6.716c3.647-3.647,6.431-7.827,8.375-12.285c2.219-5.089,3.341-10.543,3.341-16" fill="none" stroke="#000000" stroke-linecap="round" stroke-linejoin="round" stroke-miterlimit="10" stroke-width="4"/><path d="M26.412,65.837   c1.591-1.6,2.375-3.812,2.151-6.072c-0.352-3.553-3.304-6.45-6.866-6.739c-1.598-0.13-3.172,0.244-4.519,1.06   c-0.234,0.142-0.52,0.142-0.755,0c-1.794-1.087-3.988-1.39-6.107-0.763c-2.439,0.721-4.376,2.703-5.042,5.158   c-0.728,2.686,0.023,5.454,1.915,7.357l7.509,8.235C15.236,74.662,16.002,75,16.8,75s1.564-0.338,2.102-0.928L26.412,65.837z" fill="none" stroke="#000000" stroke-linecap="round" stroke-miterlimit="10" stroke-width="4"/><line fill="none" stroke="#000000" stroke-linecap="round" stroke-linejoin="round" stroke-miterlimit="10" stroke-width="4" x1="16" x2="71.126" y1="24" y2="24"/></g></svg>